<svg width="23" height="25" viewBox="0 0 23 25" fill="none" xmlns="http://www.w3.org/2000/svg"><path d="M3.025 21.206h14.259l-.681-2.205 1.629 1.399 1.493 1.333 2.72 2.273V2.481A2.654 2.654 0 0 0 19.797.007H3.031a2.553 2.553 0 0 0-2.586 2.48v16.24a2.503 2.503 0 0 0 2.58 2.48zM13.573 5.69l-.033.012.012-.012h.021zm-7.63 1.27a6.17 6.17 0 0 1 3.532-1.271l.133.133a7.279 7.279 0 0 0-3.256 1.54s.267-.133.747-.336a11.419 11.419 0 0 1 9.374.4 8.225 8.225 0 0 0-3.124-1.537l.186-.183a6.175 6.175 0 0 1 3.478 1.26 15.436 15.436 0 0 1 1.844 7.02 5.333 5.333 0 0 1-3.93 1.725s-.472-.533-.808-1a4.038 4.038 0 0 0 2.24-1.404c-.46.272-.933.518-1.419.738a9.504 9.504 0 0 1-1.828.533 9.733 9.733 0 0 1-6.033-.933l-.523-.267a4.013 4.013 0 0 0 2.173 1.404c-.282.326-.555.66-.817 1.001a4.446 4.446 0 0 1-3.803-1.805 15.473 15.473 0 0 1 1.834-7.019z" fill="#B1B1B1"/><path d="M13.739 12.767a1.333 1.333 0 0 0 0-2.655 1.334 1.334 0 0 0 0 2.652v.003zm-4.584 0a1.334 1.334 0 0 0 0-2.655 1.333 1.333 0 0 0 0 2.652v.003z" fill="#B1B1B1"/></svg>