<svg width="25" height="24" viewBox="0 0 25 24" fill="none" xmlns="http://www.w3.org/2000/svg"><path d="M12.398 2.158c3.25 0 3.537 0 4.876.095.743.059 1.48.187 2.2.383.51.23.99.518 1.433.86.396.404.69.896.861 1.435.245.707.374 1.45.383 2.199.095 1.243.095 1.625.095 4.876 0 3.251 0 3.538-.095 4.877-.059.743-.187 1.48-.383 2.2a7.13 7.13 0 0 1-.86 1.433 3.6 3.6 0 0 1-1.435.86 6.97 6.97 0 0 1-2.199.383c-1.243.096-1.626.096-4.877.096-3.25 0-3.537 0-4.876-.096a11.892 11.892 0 0 1-2.2-.382 7.128 7.128 0 0 1-1.433-.86 2.514 2.514 0 0 1-.861-1.34 6.967 6.967 0 0 1-.382-2.198c-.096-1.243-.096-1.626-.096-4.877s0-3.538.096-4.876c.077-.78.238-1.55.478-2.295.23-.51.518-.992.86-1.435a2.773 2.773 0 0 1 1.434-.86 7.102 7.102 0 0 1 2.104-.287 27.349 27.349 0 0 1 4.877-.191zm0-2.104c-3.251 0-3.634 0-4.973.096a7.592 7.592 0 0 0-2.863.568 3.822 3.822 0 0 0-2.109 1.344 4.951 4.951 0 0 0-1.344 2.11A7.592 7.592 0 0 0 .536 7.04c-.09 1.237-.09 1.715-.09 4.966 0 3.251 0 3.634.095 4.973.05.976.24 1.941.568 2.863.272.822.769 1.55 1.435 2.103a4.648 4.648 0 0 0 2.018 1.35c.923.33 1.89.523 2.869.573 1.237.09 1.62.09 4.967.09 3.346 0 3.633 0 4.972-.095.977-.05 1.941-.24 2.863-.568a5.179 5.179 0 0 0 2.103-1.435 7.48 7.48 0 0 0 1.435-2.103c.332-.925.527-1.893.579-2.874.095-1.243.095-1.626.095-4.972 0-3.347 0-3.634-.095-4.972a9.045 9.045 0 0 0-.664-2.768 4.613 4.613 0 0 0-1.435-2.104A4.647 4.647 0 0 0 20.233.718c-.923-.33-1.89-.523-2.869-.573-1.429-.09-1.811-.09-4.966-.09z" fill="#B1B1B1"/><path d="M12.397 5.887a6.12 6.12 0 1 0 6.12 6.12 6.103 6.103 0 0 0-6.12-6.12zm0 10.04a3.937 3.937 0 0 1-3.92-3.92 4.001 4.001 0 0 1 3.92-3.92 3.92 3.92 0 0 1 0 7.834v.006zm6.311-8.797a1.434 1.434 0 1 0 0-2.869 1.434 1.434 0 0 0 0 2.869z" fill="#B1B1B1"/></svg>