<svg width="42" height="16" viewBox="0 0 42 16" fill="none" xmlns="http://www.w3.org/2000/svg"><path d="M.445 15.438V.568h6.118c.935 0 1.76.188 2.474.563a4.16 4.16 0 0 1 1.678 1.583c.404.68.606 1.486.606 2.421v2.358c0 .921-.21 1.725-.626 2.411a4.289 4.289 0 0 1-1.7 1.594c-.714.376-1.525.562-2.432.562H3.249v3.378H.445zM3.25 9.51h3.037c.665 0 1.204-.183 1.614-.552.41-.369.616-.872.616-1.509V5.177c0-.637-.205-1.14-.616-1.508-.41-.368-.949-.553-1.614-.553H3.25v6.395zm9.477 5.929V6.574h2.803v8.865h-2.803zm0-10.268V.568h2.803v4.603h-2.803zm4.668 10.267V.568h5.331l2.953 12.957h.382V.568h2.762v14.87H23.49L20.538 2.48h-.382v12.958h-2.761zm18.312.298c-1.02 0-1.943-.23-2.772-.69-.828-.46-1.486-1.133-1.975-2.018-.488-.886-.733-1.965-.733-3.24V6.222c0-1.913.537-3.38 1.614-4.408C32.917.787 34.376.273 36.217.273c1.84 0 3.239.485 4.237 1.456.999.97 1.498 2.284 1.498 3.94v.086H39.19v-.17c0-.523-.11-.998-.33-1.422a2.435 2.435 0 0 0-.987-1.01c-.44-.247-.991-.371-1.657-.371-.992 0-1.771.304-2.337.913-.567.61-.85 1.437-.85 2.486v3.653c0 1.034.283 1.866.85 2.496.566.63 1.36.945 2.379.945s1.763-.269 2.23-.808c.468-.537.7-1.217.7-2.039v-.213h-3.1V7.837h5.863v7.604h-2.592v-1.423h-.382c-.099.24-.258.495-.478.764-.22.27-.549.496-.988.68-.44.184-1.04.277-1.805.277l.001-.003z" fill="#B1B1B1"/></svg>